<svg xmlns="http://www.w3.org/2000/svg" xmlns:xlink="http://www.w3.org/1999/xlink" viewBox="0 0 169.66 134.08"><defs><style>.cls-1{fill:url(#Degradado_sin_nombre_16);}.cls-2{fill:#fff;}.cls-3{fill:#91398d;}.cls-4,.cls-5{opacity:0.2;}.cls-4{fill:url(#Degradado_sin_nombre_16-2);}.cls-5{fill:url(#Degradado_sin_nombre_16-3);}.cls-6{fill:url(#Degradado_sin_nombre_16-4);}.cls-7{fill:url(#Degradado_sin_nombre_16-5);}.cls-8{fill:#2473ba;}</style><linearGradient id="Degradado_sin_nombre_16" x1="355.02" y1="-37.22" x2="383.56" y2="-37.22" gradientTransform="translate(264.46 -286.96) rotate(132.05)" gradientUnits="userSpaceOnUse"><stop offset="0" stop-color="#2473ba"/><stop offset="0.16" stop-color="#2d6eb6"/><stop offset="0.41" stop-color="#4462ad"/><stop offset="0.72" stop-color="#694e9d"/><stop offset="1" stop-color="#91398d"/></linearGradient><linearGradient id="Degradado_sin_nombre_16-2" x1="10.11" y1="-123.83" x2="78.41" y2="-123.83" gradientTransform="translate(1.8 3.1) rotate(90)" xlink:href="#Degradado_sin_nombre_16"/><linearGradient id="Degradado_sin_nombre_16-3" x1="61.76" y1="-38.22" x2="130.06" y2="-38.22" gradientTransform="translate(1.8 3.1) rotate(90)" xlink:href="#Degradado_sin_nombre_16"/><linearGradient id="Degradado_sin_nombre_16-4" x1="554.96" y1="-37.31" x2="702.42" y2="-37.31" gradientTransform="translate(652.34 -188.84) rotate(157.83)" xlink:href="#Degradado_sin_nombre_16"/><linearGradient id="Degradado_sin_nombre_16-5" x1="236.48" y1="-145.38" x2="246.8" y2="-145.38" gradientTransform="translate(304.2 26.31) rotate(-166.92)" xlink:href="#Degradado_sin_nombre_16"/></defs><g id="Layer_2" data-name="Layer 2"><g id="Layer_1-2" data-name="Layer 1"><path class="cls-1" d="M34.29,21.82c3.75,1.76,8.22.15,11.54-1.35,7.24-4,12.87-19.16,6-20.32C44.5-1.49,37.09,10.41,33.24,18.85a2.24,2.24,0,0,0,1,3Z"/><path class="cls-2" d="M160.11,67.22a1,1,0,1,1,1-1A1,1,0,0,1,160.11,67.22Z"/><path class="cls-2" d="M160.1,73.17a1,1,0,1,1,1-1A1,1,0,0,1,160.1,73.17Z"/><path class="cls-2" d="M160.09,79.12a1,1,0,1,1,1-1A1,1,0,0,1,160.09,79.12Z"/><path class="cls-2" d="M160.08,85.07a1,1,0,1,1,1-1A1,1,0,0,1,160.08,85.07Z"/><path class="cls-2" d="M160.07,91a1,1,0,1,1,1-1A1,1,0,0,1,160.07,91Z"/><path class="cls-2" d="M155.49,67.21a1,1,0,1,1,1-1A1,1,0,0,1,155.49,67.21Z"/><path class="cls-2" d="M155.48,73.16a1,1,0,0,1,0-2,1,1,0,0,1,0,2Z"/><path class="cls-2" d="M155.46,79.11a1,1,0,1,1,1-1A1,1,0,0,1,155.46,79.11Z"/><path class="cls-2" d="M155.45,85.06a1,1,0,1,1,1-1A1,1,0,0,1,155.45,85.06Z"/><path class="cls-2" d="M155.44,91a1,1,0,0,1-1-1,1,1,0,1,1,1,1Z"/><path class="cls-2" d="M150.86,67.21a1,1,0,1,1,1-1A1,1,0,0,1,150.86,67.21Z"/><path class="cls-2" d="M150.85,73.15a1,1,0,1,1,1-1A1,1,0,0,1,150.85,73.15Z"/><path class="cls-2" d="M150.84,79.1a1,1,0,1,1,1-1A1,1,0,0,1,150.84,79.1Z"/><path class="cls-2" d="M150.83,85.05a1,1,0,1,1,1-1A1,1,0,0,1,150.83,85.05Z"/><path class="cls-2" d="M150.81,91a1,1,0,1,1,0-2,1,1,0,1,1,0,2Z"/><path class="cls-2" d="M146.23,67.2a1,1,0,1,1,1-1A1,1,0,0,1,146.23,67.2Z"/><path class="cls-2" d="M146.22,73.14a1,1,0,1,1,0-2,1,1,0,1,1,0,2Z"/><path class="cls-2" d="M146.21,79.09a1,1,0,1,1,1-1A1,1,0,0,1,146.21,79.09Z"/><path class="cls-2" d="M146.2,85a1,1,0,1,1,1-1A1,1,0,0,1,146.2,85Z"/><path class="cls-2" d="M146.19,91a1,1,0,1,1,1-1A1,1,0,0,1,146.19,91Z"/><path class="cls-2" d="M141.61,67.19a1,1,0,1,1,1-1A1,1,0,0,1,141.61,67.19Z"/><path class="cls-2" d="M141.6,73.14a1,1,0,0,1-1-1,1,1,0,1,1,2,0A1,1,0,0,1,141.6,73.14Z"/><path class="cls-2" d="M141.58,79.08a1,1,0,1,1,1-1A1,1,0,0,1,141.58,79.08Z"/><path class="cls-2" d="M141.57,85a1,1,0,1,1,1-1A1,1,0,0,1,141.57,85Z"/><path class="cls-2" d="M141.56,91a1,1,0,1,1,1-1A1,1,0,0,1,141.56,91Z"/><path class="cls-2" d="M137,67.18a1,1,0,0,1-1-1,1,1,0,1,1,1,1Z"/><path class="cls-2" d="M137,73.13a1,1,0,1,1,1-1A1,1,0,0,1,137,73.13Z"/><path class="cls-2" d="M137,79.08a1,1,0,0,1-1-1,1,1,0,1,1,1,1Z"/><path class="cls-2" d="M137,85a1,1,0,1,1,1-1A1,1,0,0,1,137,85Z"/><path class="cls-2" d="M136.93,91a1,1,0,1,1,1-1A1,1,0,0,1,136.93,91Z"/><path class="cls-2" d="M70.31,11.86a1,1,0,1,1,1-1A1,1,0,0,1,70.31,11.86Z"/><path class="cls-2" d="M70.3,17.81a1,1,0,0,1,0-2,1,1,0,0,1,0,2Z"/><path class="cls-2" d="M70.29,23.75a1,1,0,1,1,1-1A1,1,0,0,1,70.29,23.75Z"/><path class="cls-2" d="M70.28,29.7a1,1,0,1,1,1-1A1,1,0,0,1,70.28,29.7Z"/><path class="cls-2" d="M70.27,35.65a1,1,0,1,1,1-1A1,1,0,0,1,70.27,35.65Z"/><path class="cls-2" d="M65.69,11.85a1,1,0,1,1,1-1A1,1,0,0,1,65.69,11.85Z"/><path class="cls-2" d="M65.67,17.8a1,1,0,1,1,1-1A1,1,0,0,1,65.67,17.8Z"/><path class="cls-2" d="M65.66,23.74a1,1,0,1,1,1-1A1,1,0,0,1,65.66,23.74Z"/><path class="cls-2" d="M65.65,29.69a1,1,0,1,1,1-1A1,1,0,0,1,65.65,29.69Z"/><path class="cls-2" d="M65.64,35.64a1,1,0,1,1,1-1A1,1,0,0,1,65.64,35.64Z"/><path class="cls-2" d="M61.06,11.84a1,1,0,1,1,1-1A1,1,0,0,1,61.06,11.84Z"/><path class="cls-2" d="M61.05,17.79a1,1,0,1,1,1-1A1,1,0,0,1,61.05,17.79Z"/><path class="cls-2" d="M61,23.74a1,1,0,0,1-1-1,1,1,0,1,1,2,0A1,1,0,0,1,61,23.74Z"/><path class="cls-2" d="M61,29.68a1,1,0,0,1,0-2,1,1,0,1,1,0,2Z"/><path class="cls-2" d="M61,35.63a1,1,0,1,1,1-1A1,1,0,0,1,61,35.63Z"/><path class="cls-2" d="M56.43,11.83a1,1,0,1,1,1-1A1,1,0,0,1,56.43,11.83Z"/><path class="cls-2" d="M56.42,17.78a1,1,0,1,1,1-1A1,1,0,0,1,56.42,17.78Z"/><path class="cls-2" d="M56.41,23.73a1,1,0,1,1,1-1A1,1,0,0,1,56.41,23.73Z"/><path class="cls-2" d="M56.4,29.67a1,1,0,1,1,1-1A1,1,0,0,1,56.4,29.67Z"/><path class="cls-2" d="M56.39,35.62a1,1,0,1,1,1-1A1,1,0,0,1,56.39,35.62Z"/><path class="cls-2" d="M51.81,11.82a1,1,0,1,1,1-1A1,1,0,0,1,51.81,11.82Z"/><path class="cls-2" d="M51.8,17.77a1,1,0,1,1,1-1A1,1,0,0,1,51.8,17.77Z"/><path class="cls-2" d="M51.78,23.72a1,1,0,1,1,1-1A1,1,0,0,1,51.78,23.72Z"/><path class="cls-2" d="M51.77,29.67a1,1,0,1,1,1-1A1,1,0,0,1,51.77,29.67Z"/><path class="cls-2" d="M51.76,35.61a1,1,0,1,1,1-1A1,1,0,0,1,51.76,35.61Z"/><path class="cls-2" d="M47.18,11.81a1,1,0,1,1,1-1A1,1,0,0,1,47.18,11.81Z"/><path class="cls-2" d="M47.17,17.76a1,1,0,1,1,1-1A1,1,0,0,1,47.17,17.76Z"/><path class="cls-2" d="M47.16,23.71a1,1,0,0,1-1-1,1,1,0,0,1,2,0A1,1,0,0,1,47.16,23.71Z"/><path class="cls-2" d="M47.15,29.66a1,1,0,1,1,1-1A1,1,0,0,1,47.15,29.66Z"/><path class="cls-2" d="M47.13,35.61a1,1,0,0,1,0-2,1,1,0,1,1,0,2Z"/><path class="cls-3" d="M111.28,115.33a19.83,19.83,0,0,1-28.59,15.86l.29-.59a19.15,19.15,0,1,0,17.15-34.24l.3-.59A19.85,19.85,0,0,1,111.28,115.33Z"/><path class="cls-3" d="M78.12,126.56a2.5,2.5,0,1,1-1.25,3.31A2.51,2.51,0,0,1,78.12,126.56Z"/><path class="cls-4" d="M106.07,18.94c16.54-8.43,47.2-8.84,55.48,7.41s-9,43-25.5,51.42-36.66,2.1-44.94-14.15S89.53,27.37,106.07,18.94Z"/><path class="cls-5" d="M20.46,70.6C37,62.17,67.67,61.76,76,78s-9,43-25.5,51.43S13.78,131.52,5.5,115.28,3.92,79,20.46,70.6Z"/><path class="cls-6" d="M34.92,93.38a6.63,6.63,0,0,1,7.13,2.9l0,0a56.48,56.48,0,0,0,67.14,22.34,3.41,3.41,0,0,1,4.05,1.35h0a30.67,30.67,0,1,0,43.42-41.7A27.38,27.38,0,0,1,145.6,59,56.47,56.47,0,0,0,45.23,30.75a18.9,18.9,0,0,1-15.71,7.33,28.09,28.09,0,1,0,5.4,55.3Z"/><path class="cls-2" d="M60.4,114.18h87v-85h-15l.92,1.11h12.92v82.76H22V30.31H45.41c.3-.37.6-.74.92-1.11H20.84v85Z"/><path class="cls-7" d="M40.09,116.45c2.49-2.29-2.09-7.26-5.38-8.51a2.77,2.77,0,0,0-2.06,0,1.46,1.46,0,0,0-1,1.52C34.25,120.16,36.31,119.32,40.09,116.45Z"/><path class="cls-8" d="M150.7,37.82a19.79,19.79,0,0,1,16.12,28.44l-.59-.29a19.15,19.15,0,1,0-34.4-16.84l-.59-.29A19.85,19.85,0,0,1,150.7,37.82Z"/><path class="cls-8" d="M166.77,68.63A1.67,1.67,0,1,1,165.1,67,1.67,1.67,0,0,1,166.77,68.63Z"/></g></g></svg>