<svg viewBox="0 0 203.36 234.45" xmlns="http://www.w3.org/2000/svg"><path d="m18.05 57.15c8.95 3.85 18.83 4.44 28.52 4.63s19.51 0 28.92 2.33c16.16 3.98 29.51 14.89 43.58 23.83 12 7.63 24.73 14 37.46 20.27 7.78 3.86 16.81 7.79 24.84 4.46 7.78-3.23 11.45-12 14.1-20 4.53-13.67 8.38-27.88 7.84-42.28s-6-29.2-17.36-38.12c-11.95-9.46-28.28-10.97-43.55-11.58-38.64-1.55-78.52-.79-116.78 5.31-27.8 4.49-36.81 38.66-7.57 51.15z" fill="#99d3d3"/><path d="m115.29 22.3c-5.69 10-5.27 22.41-2 33.4s9.11 21 14 31.36 9 21.54 8.37 33c-.51 9-3.91 17.6-5.78 26.43s-2 18.79 3.33 26.08c5.77 7.91 17 11.37 20.64 20.44 4 9.86-3 21.68 1.12 31.5 3.48 8.37 14.46 11.88 23 8.9s14.63-11 17.56-19.55 3.21-17.8 3.46-26.87q1.32-48.78 2.66-97.58c.53-19.68.86-40.33-8.2-57.81-6.88-13.33-21.55-24.6-37.06-24.44-13.84.16-33.39 1.68-41.1 15.14z" fill="#ffdc97" opacity=".8"/><path d="m180.47 122.7a72.59 72.59 0 0 1 -23.47-41.44c-.25-1.36-.46-2.76-.67-4.11-.74-4.87-1.51-9.91-4-14.19-4.15-7.28-12.68-11.94-26.06-14.27-1.71-.29-3.47-.56-5.17-.83-8.51-1.32-17.31-2.69-24.45-7.55a22.74 22.74 0 0 1 -9.5-15.66 13.69 13.69 0 0 1 3.46-11.24l.37.34a13.17 13.17 0 0 0 -3.33 10.84 22.23 22.23 0 0 0 9.35 15.31c7 4.79 15.79 6.15 24.25 7.47 1.7.26 3.46.53 5.17.83 13.54 2.35 22.18 7.1 26.42 14.51 2.49 4.36 3.27 9.45 4 14.36.2 1.35.42 2.75.66 4.1a72.08 72.08 0 0 0 23.28 41.16z" fill="#010101"/></svg>