<svg viewBox="0 0 160.83 138.84" xmlns="http://www.w3.org/2000/svg" xmlns:xlink="http://www.w3.org/1999/xlink"><linearGradient id="a" gradientUnits="userSpaceOnUse" x1="50.19" x2="72.84" y1="12.63" y2="12.63"><stop offset="0" stop-color="#fed908"/><stop offset="1" stop-color="#e94791"/></linearGradient><linearGradient id="b" gradientTransform="matrix(.70710678 -.70710678 .70710678 .70710678 51.41 -53.81)" gradientUnits="userSpaceOnUse" x1="-100.23" x2="-33.84" y1="58.77" y2="58.77"><stop offset="0" stop-color="#e94791"/><stop offset="1" stop-color="#fed908"/></linearGradient><linearGradient id="c" gradientTransform="matrix(0 1 -1 0 45 -23.64)" x1="91.64" x2="159.94" xlink:href="#b" y1="-74.7" y2="-74.7"/><linearGradient id="d" x1="1.49" x2="160.83" xlink:href="#a" y1="69.65" y2="69.65"/><linearGradient id="e" x1="99.29" x2="117.68" xlink:href="#a" y1="112.67" y2="112.67"/><path d="m33.65 101.43a33.32 33.32 0 0 1 -12.2-2.31 33.72 33.72 0 0 1 -19.15-43.62l1 .4a32.57 32.57 0 0 0 60.7 23.68l1 .4a33.74 33.74 0 0 1 -31.35 21.45z" fill="#fed908"/><path d="m155.64 57.69a33.7 33.7 0 0 0 -28.23-47.9l-.08 1.11a32.57 32.57 0 0 1 -4.39 65l-.08 1.1a33.76 33.76 0 0 0 32.78-19.31z" fill="#e94791"/><path d="m52.09 19.11c-2.79-5.48-2.93-15.65 2.46-18.4s14.26 3 17 8.46a11 11 0 1 1 -19.51 9.94z" fill="url(#a)"/><path d="m39.48 68.12c-17.16-5.57-38.48-26.37-33.04-43.23s35.7-23.39 52.87-17.81 26.69 23.76 21.17 40.61-23.83 26.01-41 20.43z" fill="url(#b)" opacity=".2"/><path d="m100.15 73.74c16.54-8.43 47.2-8.84 55.48 7.4s-9 43-25.5 51.42-36.66 2.1-44.94-14.14-1.58-36.25 14.96-44.68z" fill="url(#c)" opacity=".2"/><g fill="#fff"><path d="m31.55 115.06a1 1 0 1 1 1-1 1 1 0 0 1 -1 1z"/><path d="m31.37 121a1 1 0 1 1 1-1 1 1 0 0 1 -1 1z"/><path d="m31.19 127a1 1 0 0 1 -1-1 1 1 0 0 1 1-1 1 1 0 0 1 1 1 1 1 0 0 1 -1 1z"/><path d="m31 132.89a1 1 0 1 1 .07-2 1 1 0 0 1 1 1 1 1 0 0 1 -1.07 1z"/><path d="m30.82 138.84a1 1 0 1 1 .06-2 1 1 0 0 1 -.06 2z"/><path d="m26.92 114.92a1 1 0 1 1 1-1 1 1 0 0 1 -1 1z"/><path d="m26.74 120.86a1 1 0 0 1 .06-2 1 1 0 0 1 -.06 2z"/><path d="m26.56 126.81a1 1 0 0 1 -1-1 1 1 0 0 1 1-1 1 1 0 0 1 -.06 2z"/><path d="m26.38 132.75a1 1 0 1 1 1-1 1 1 0 0 1 -1 1z"/><path d="m26.2 138.7a1 1 0 0 1 -1-1 1 1 0 1 1 2 .06 1 1 0 0 1 -1 .94z"/><path d="m22.3 114.77a1 1 0 0 1 -1-1 1 1 0 0 1 2 .06 1 1 0 0 1 -1 .94z"/><path d="m22.12 120.72a1 1 0 1 1 1-1 1 1 0 0 1 -1 1z"/><path d="m21.94 126.67a1 1 0 1 1 1-1 1 1 0 0 1 -1 1z"/><path d="m21.76 132.61a1 1 0 1 1 .06-2 1 1 0 0 1 -.06 2z"/><path d="m21.57 138.56a1 1 0 1 1 1-1 1 1 0 0 1 -1 1z"/><path d="m17.68 114.63a1 1 0 0 1 .06-2 1 1 0 0 1 1 1 1 1 0 0 1 -1.06 1z"/><path d="m17.49 120.58a1 1 0 0 1 -1-1 1 1 0 1 1 1 1z"/><path d="m17.31 126.52a1 1 0 0 1 -1-1 1 1 0 0 1 1-1 1 1 0 0 1 1 1 1 1 0 0 1 -1 1z"/><path d="m17.13 132.47a1 1 0 1 1 1-1 1 1 0 0 1 -1 1z"/><path d="m17 138.42a1 1 0 1 1 1-1 1 1 0 0 1 -1 1z"/><path d="m13.05 114.49a1 1 0 0 1 -1-1 1 1 0 1 1 2 .06 1 1 0 0 1 -1 .94z"/><path d="m12.87 120.44a1 1 0 0 1 .06-2 1 1 0 0 1 1 1 1 1 0 0 1 -1.06 1z"/><path d="m12.69 126.38a1 1 0 0 1 .06-2 1 1 0 1 1 -.06 2z"/><path d="m12.51 132.33a1 1 0 0 1 -1-1 1 1 0 1 1 2 .06 1 1 0 0 1 -1 .94z"/><path d="m12.33 138.27a1 1 0 0 1 -1-1 1 1 0 0 1 1-1 1 1 0 0 1 1 1 1 1 0 0 1 -1 1z"/><path d="m8.43 114.35a1 1 0 1 1 1-1 1 1 0 0 1 -1 1z"/><path d="m8.25 120.3a1 1 0 0 1 .06-2 1 1 0 0 1 -.06 2z"/><path d="m8.06 126.24a1 1 0 1 1 1-1 1 1 0 0 1 -1 1z"/><path d="m7.88 132.19a1 1 0 0 1 -1-1 1 1 0 0 1 1-1 1 1 0 0 1 1 1 1 1 0 0 1 -1 1z"/><path d="m7.7 138.13a1 1 0 1 1 .06-2 1 1 0 0 1 1 1 1 1 0 0 1 -1.06 1z"/><path d="m83.15 16.21a1 1 0 1 1 1-1 1 1 0 0 1 -1 1z"/><path d="m83 22.16a1 1 0 1 1 1-1 1 1 0 0 1 -1 1z"/><path d="m82.79 28.1a1 1 0 1 1 1-1 1 1 0 0 1 -1 1z"/><path d="m82.61 34.05a1 1 0 0 1 -1-1 1 1 0 0 1 1-1 1 1 0 0 1 1 1 1 1 0 0 1 -1 1z"/><path d="m82.42 40a1 1 0 1 1 .06-2 1 1 0 0 1 1 1 1 1 0 0 1 -1.06 1z"/><path d="m78.53 16.07a1 1 0 1 1 1-1 1 1 0 0 1 -1 1z"/><path d="m78.34 22a1 1 0 1 1 1-1 1 1 0 0 1 -1 1z"/><path d="m78.16 28a1 1 0 1 1 .06-2 1 1 0 1 1 -.06 2z"/><path d="m78 33.91a1 1 0 1 1 1-1 1 1 0 0 1 -1 1z"/><path d="m77.8 39.85a1 1 0 1 1 1-1 1 1 0 0 1 -1 1z"/><path d="m73.9 15.93a1 1 0 1 1 .1-1.93 1 1 0 0 1 -.06 2z"/><path d="m73.72 21.87a1 1 0 0 1 -1-1 1 1 0 1 1 2 .06 1 1 0 0 1 -1 .94z"/><path d="m73.54 27.82a1 1 0 1 1 1-1 1 1 0 0 1 -1 1z"/><path d="m73.36 33.77a1 1 0 1 1 1-1 1 1 0 0 1 -1 1z"/><path d="m73.18 39.71a1 1 0 1 1 1-1 1 1 0 0 1 -1 1z"/><path d="m69.28 15.79a1 1 0 0 1 -1-1 1 1 0 1 1 2 .06 1 1 0 0 1 -1 .94z"/><path d="m69.1 21.73a1 1 0 1 1 .06-2 1 1 0 0 1 1 1 1 1 0 0 1 -1.06 1z"/><path d="m68.91 27.68a1 1 0 0 1 -1-1 1 1 0 1 1 1 1z"/><path d="m68.73 33.62a1 1 0 0 1 -1-1 1 1 0 0 1 1-1 1 1 0 0 1 1 1 1 1 0 0 1 -1 1z"/><path d="m68.55 39.57a1 1 0 1 1 1-1 1 1 0 0 1 -1 1z"/><path d="m64.65 15.65a1 1 0 0 1 .06-2 1 1 0 0 1 -.06 2z"/><path d="m64.47 21.59a1 1 0 1 1 1-1 1 1 0 0 1 -1 1z"/><path d="m64.29 27.54a1 1 0 1 1 .06-2 1 1 0 0 1 1 1 1 1 0 0 1 -1.06 1z"/><path d="m64.11 33.48a1 1 0 1 1 .06-2 1 1 0 0 1 -.06 2z"/><path d="m63.93 39.43a1 1 0 0 1 -1-1 1 1 0 0 1 1-1 1 1 0 0 1 -.06 2z"/><path d="m60 15.51a1 1 0 1 1 1-1 1 1 0 0 1 -1 1z"/><path d="m59.85 21.45a1 1 0 0 1 .06-2 1 1 0 1 1 -.06 2z"/><path d="m59.67 27.4a1 1 0 1 1 1-1 1 1 0 0 1 -1 1z"/><path d="m59.48 33.34a1 1 0 1 1 1-1 1 1 0 0 1 -1 1z"/><path d="m59.3 39.29a1 1 0 0 1 -1-1 1 1 0 0 1 1-1 1 1 0 0 1 1 1 1 1 0 0 1 -1 1z"/></g><path d="m121.18 18.11h-.18a12.67 12.67 0 0 1 -10.39-5.43 18.48 18.48 0 0 0 -33.42 8.41v.34a15.61 15.61 0 0 1 -17.51 14 60.81 60.81 0 0 0 -11.15-.68 49.84 49.84 0 1 0 44 78 35.69 35.69 0 0 1 29.07-15.35h.51a39.65 39.65 0 0 0 -.93-79.28z" fill="url(#d)"/><path d="m143.32 90.56v19.44h-124.32v-82.78h56.36c.19-.37.38-.74.54-1.12h-58v85h126.53v-21.33c-.36.23-.73.54-1.11.79z" fill="#fff"/><circle cx="123.93" cy="10.14" fill="#e94791" r="2.13"/><circle cx="4.71" cy="51.8" fill="#fed908" r="2.23"/><path d="m106.64 107.66c2.9-2.34 8.58-4.1 10.43-1.81s-.82 7.78-3.73 10.12-11.84 6.18-13.7 3.88 4.09-9.85 7-12.19z" fill="url(#e)"/></svg>